<svg width="871" height="839" viewBox="0 0 871 839" fill="none" xmlns="http://www.w3.org/2000/svg">
<path fill-rule="evenodd" clip-rule="evenodd" d="M411.424 0.412873C525.158 -4.88693 611.173 40.8361 669.47 137.58C725.021 238.962 781.029 340.123 837.499 441.063C876.235 515.316 881.379 591.902 852.931 670.818C807.443 772.625 728.858 828.349 617.175 837.99C492.58 839.134 367.988 839.134 243.394 837.99C140.446 824.147 66.4343 770.71 21.3542 677.676C-8.74025 602.591 -7.02566 528.292 26.498 454.779C88.7942 343.902 151.092 233.026 213.388 122.149C260.958 51.638 326.97 11.0588 411.424 0.412873Z" fill="#FF2828"/>
<path fill-rule="evenodd" clip-rule="evenodd" d="M447.454 118.716C465.229 118.406 482.946 119.263 500.606 121.288C520.209 124.318 531.068 135.749 533.184 155.58C530.961 171.512 522.389 182.372 507.465 188.157C429.916 179.66 366.189 205.092 316.288 264.456C267.509 325.578 250.364 394.734 264.85 471.922C285.765 529.416 324.343 570.279 380.585 594.515C390.25 597.02 399.967 599.306 409.733 601.373C431.922 612.34 437.923 629.2 427.736 651.954C419.859 663.039 409.001 668.755 395.159 669.1C310.157 649.259 248.431 600.106 209.983 521.645C169.732 411.088 186.877 310.498 261.421 219.877C309.406 160.307 371.417 126.588 447.454 118.716Z" fill="black"/>
<path fill-rule="evenodd" clip-rule="evenodd" d="M492.009 255.888C533.435 253.796 571.156 264.37 605.172 287.608C619.952 303.797 620.523 320.37 606.887 337.331C597 345.985 585.569 348.841 572.595 345.904C522.323 317.49 473.743 319.777 426.855 352.762C397.022 380.976 391.021 413.84 408.851 451.351C419.139 463.924 429.426 476.499 439.714 489.072C448.582 511.624 442.01 527.913 419.996 537.938C408.985 540.169 398.698 538.454 389.134 532.794C354.333 504.066 334.042 467.203 328.266 422.203C329.876 349.548 363.883 298.394 430.284 268.747C450.61 262.037 471.185 257.75 492.009 255.888Z" fill="black"/>
<path fill-rule="evenodd" clip-rule="evenodd" d="M507.439 401.622C520.422 399.537 531.853 402.68 541.731 411.052C601.6 481.122 614.459 559.136 580.309 645.094C560.796 691.461 529.648 727.754 486.864 753.97C460.749 758.649 445.318 748.077 440.57 722.25C441.474 716.968 442.902 711.824 444.857 706.819C452.701 697.824 461.56 690.108 471.433 683.672C522.85 635.644 539.996 577.348 522.871 508.784C515.104 489.599 504.53 472.169 491.151 456.489C478.403 432.729 483.831 414.44 507.439 401.622Z" fill="black"/>
<path fill-rule="evenodd" clip-rule="evenodd" d="M663.464 401.63C677.712 399.754 689.428 404.325 698.613 415.347C717.993 451.705 728.853 490.569 731.19 531.939C737.177 605.149 720.602 672.59 681.467 734.261C666.322 748.433 650.033 749.863 632.601 738.547C620.186 726.485 617.043 712.482 623.171 696.54C642.563 669.233 654.565 638.943 659.177 605.666C661.847 577.151 662.419 548.574 660.892 519.937C658.848 506.616 655.99 493.47 652.319 480.501C645.57 465.684 640.713 450.252 637.745 434.207C639.427 417.689 648 406.83 663.464 401.63Z" fill="black"/>
<path fill-rule="evenodd" clip-rule="evenodd" d="M104.509 511.356C119.103 510.025 131.392 514.598 141.372 525.072C153.654 572.802 176.801 614.238 210.813 649.38C233.521 670.454 259.811 685.313 289.685 693.96C307.974 712.249 307.974 730.537 289.685 748.827C279.599 754.538 268.741 756.252 257.107 753.97C198.482 732.809 152.473 695.945 119.083 643.379C101.717 614.934 88.5717 584.643 79.6472 552.506C77.8469 532.672 86.1335 518.955 104.509 511.356Z" fill="black"/>
</svg>
